/* XPM */
static char * runDonglelogo_48_xpm[] = {
"48 29 670 2",
"  	c None",
". 	c #AE1219",
"+ 	c #AA0E15",
"@ 	c #A6030A",
"# 	c #A40107",
"$ 	c #A30107",
"% 	c #A70107",
"& 	c #B20C13",
"* 	c #BB1118",
"= 	c #C1141B",
"- 	c #C3151D",
"; 	c #C1181E",
"> 	c #A31B22",
", 	c #A01C23",
"' 	c #A50A12",
") 	c #AE0004",
"! 	c #AB0109",
"~ 	c #A70108",
"{ 	c #B30108",
"] 	c #C8020A",
"^ 	c #D40510",
"/ 	c #DB0A18",
"( 	c #DF0E1E",
"_ 	c #DF1020",
": 	c #DE0F21",
"< 	c #DA0F1E",
"[ 	c #D50D1A",
"} 	c #C70913",
"| 	c #B92127",
"1 	c #6F676B",
"2 	c #5D6D71",
"3 	c #6C8488",
"4 	c #6D6F73",
"5 	c #6A6469",
"6 	c #7F4B50",
"7 	c #AD060E",
"8 	c #C9020B",
"9 	c #DD0613",
"0 	c #E20E1D",
"a 	c #E41629",
"b 	c #E6182C",
"c 	c #E5182C",
"d 	c #E41528",
"e 	c #D80B1B",
"f 	c #C2141E",
"g 	c #676A6F",
"h 	c #6E7B7E",
"i 	c #858285",
"j 	c #84787B",
"k 	c #709599",
"l 	c #67C2C5",
"m 	c #917B80",
"n 	c #D30E19",
"o 	c #E20C1A",
"p 	c #E41326",
"q 	c #E5172C",
"r 	c #E61F33",
"s 	c #DC2032",
"t 	c #A91D34",
"u 	c #9C223C",
"v 	c #9F223E",
"w 	c #B01F3A",
"x 	c #D2192D",
"y 	c #E8162A",
"z 	c #E7182D",
"A 	c #DE1022",
"B 	c #C71622",
"C 	c #70666A",
"D 	c #646B6F",
"E 	c #7B797C",
"F 	c #8F787A",
"G 	c #7C9B9D",
"H 	c #64DCDD",
"I 	c #5DF0F1",
"J 	c #A54F54",
"K 	c #DF0713",
"L 	c #E40E1E",
"M 	c #E51629",
"N 	c #E53244",
"O 	c #4B2438",
"P 	c #3E2E4A",
"Q 	c #3F2F58",
"R 	c #423059",
"S 	c #5D3D54",
"T 	c #A42D37",
"U 	c #EB1529",
"V 	c #E11325",
"W 	c #C4131F",
"X 	c #6A656A",
"Y 	c #606A6F",
"Z 	c #70666B",
"` 	c #7C7376",
" .	c #68CACC",
"..	c #5CF7F8",
"+.	c #60EAEB",
"@.	c #AC4249",
"#.	c #E50A19",
"$.	c #E31020",
"%.	c #E5162B",
"&.	c #E52135",
"*.	c #4B2941",
"=.	c #423052",
"-.	c #432E58",
";.	c #453253",
">.	c #599D9E",
",.	c #89373D",
"'.	c #E81429",
").	c #DE1424",
"!.	c #BC1F2A",
"~.	c #4D6884",
"{.	c #4A5F77",
"].	c #6D6066",
"^.	c #71787C",
"/.	c #64DEDE",
"(.	c #5BFCFC",
"_.	c #60E8E9",
":.	c #A5585E",
"<.	c #E70614",
"[.	c #E41021",
"}.	c #E4182C",
"|.	c #D92838",
"1.	c #79293A",
"2.	c #5F2F43",
"3.	c #582D4D",
"4.	c #4F2C4E",
"5.	c #4E5258",
"6.	c #4E7576",
"7.	c #9A1A24",
"8.	c #E7162A",
"9.	c #E6182B",
"0.	c #D41827",
"a.	c #A71C28",
"b.	c #7D2C42",
"c.	c #74344D",
"d.	c #7F4650",
"e.	c #786F75",
"f.	c #61969B",
"g.	c #559596",
"h.	c #A1474E",
"i.	c #E80716",
"j.	c #E61223",
"k.	c #CB1120",
"l.	c #A50F14",
"m.	c #A30C11",
"n.	c #A30E12",
"o.	c #A00B0F",
"p.	c #9E090D",
"q.	c #990408",
"r.	c #970105",
"s.	c #A5161B",
"t.	c #AA1E24",
"u.	c #A41920",
"v.	c #9B1621",
"w.	c #98222A",
"x.	c #931F27",
"y.	c #A01B25",
"z.	c #DE1528",
"A.	c #E6182D",
"B.	c #E01629",
"C.	c #C4232F",
"D.	c #B40F16",
"E.	c #B1060F",
"F.	c #B0060F",
"G.	c #B1050F",
"H.	c #B10610",
"I.	c #B20610",
"J.	c #A50F1E",
"K.	c #A61420",
"L.	c #E80E1D",
"M.	c #E71222",
"N.	c #E6172B",
"O.	c #DD1628",
"P.	c #AC0812",
"Q.	c #B50A17",
"R.	c #BD0D19",
"S.	c #C40E1C",
"T.	c #CB101E",
"U.	c #D11120",
"V.	c #D81223",
"W.	c #DD1425",
"X.	c #E01527",
"Y.	c #E01426",
"Z.	c #E01425",
"`.	c #E01223",
" +	c #DF1223",
".+	c #E01222",
"++	c #DE1020",
"@+	c #E00F20",
"#+	c #DF0F1F",
"$+	c #D00B17",
"%+	c #B5151E",
"&+	c #B1040D",
"*+	c #B2050E",
"=+	c #B1050E",
"-+	c #B6030C",
";+	c #DB0612",
">+	c #E20A19",
",+	c #DE0E1E",
"'+	c #DE0E1D",
")+	c #DE0D1C",
"!+	c #E10D1E",
"~+	c #E10D1C",
"{+	c #DF0C1B",
"]+	c #DE0B1A",
"^+	c #DE0A1A",
"/+	c #DD0A19",
"(+	c #DD0918",
"_+	c #DD0A18",
":+	c #DE0A18",
"<+	c #DE0A19",
"[+	c #DD0A1A",
"}+	c #DE0C1B",
"|+	c #E00D1C",
"1+	c #D20B17",
"2+	c #AE1F38",
"3+	c #A2122D",
"4+	c #B2030B",
"5+	c #B2040E",
"6+	c #B2050F",
"7+	c #B4060C",
"8+	c #D40B17",
"9+	c #E10918",
"0+	c #DF0D1D",
"a+	c #E00F1F",
"b+	c #E21121",
"c+	c #E31423",
"d+	c #E61823",
"e+	c #E91A25",
"f+	c #EC1E27",
"g+	c #EE2029",
"h+	c #F0242B",
"i+	c #F0252F",
"j+	c #ED2233",
"k+	c #F4282B",
"l+	c #F4272A",
"m+	c #F2282A",
"n+	c #F0272B",
"o+	c #EE262B",
"p+	c #EC262C",
"q+	c #EA262B",
"r+	c #E8252B",
"s+	c #E7242A",
"t+	c #D71B28",
"u+	c #4410A2",
"v+	c #070CBD",
"w+	c #2A16A2",
"x+	c #7A033D",
"y+	c #AC030A",
"z+	c #AD030A",
"A+	c #AE030B",
"B+	c #AF040C",
"C+	c #B1040B",
"D+	c #B50408",
"E+	c #940428",
"F+	c #CF0A11",
"G+	c #F94757",
"H+	c #EF3543",
"I+	c #EA333F",
"J+	c #E8313C",
"K+	c #E62F3A",
"L+	c #E72E37",
"M+	c #E72C31",
"N+	c #E8292C",
"O+	c #DD2630",
"P+	c #C02245",
"Q+	c #A61C57",
"R+	c #921763",
"S+	c #80136D",
"T+	c #710D74",
"U+	c #872B62",
"V+	c #B05A4A",
"W+	c #773071",
"X+	c #37039E",
"Y+	c #3406A1",
"Z+	c #3A079B",
"`+	c #49078C",
" @	c #5C087C",
".@	c #6E096E",
"+@	c #7B0A61",
"@@	c #810B5A",
"#@	c #820A57",
"$@	c #790A5E",
"%@	c #2E04A2",
"&@	c #0000C6",
"*@	c #1313A1",
"=@	c #510A6F",
"-@	c #9F0116",
";@	c #AE0207",
">@	c #AB0209",
",@	c #AA010A",
"'@	c #AC0108",
")@	c #A8010C",
"!@	c #8F0128",
"~@	c #32008F",
"{@	c #0001EE",
"]@	c #C53977",
"^@	c #EE434A",
"/@	c #C20A18",
"(@	c #B9091E",
"_@	c #B20823",
":@	c #A40825",
"<@	c #7C0640",
"[@	c #440275",
"}@	c #1400AA",
"|@	c #0000CB",
"1@	c #0000CC",
"2@	c #0000C9",
"3@	c #0000C8",
"4@	c #4C4B97",
"5@	c #0000C3",
"6@	c #0000C2",
"7@	c #0000B0",
"8@	c #000270",
"9@	c #00023F",
"0@	c #000240",
"a@	c #000167",
"b@	c #0000A8",
"c@	c #0000C4",
"d@	c #0000C0",
"e@	c #0100BF",
"f@	c #0000B3",
"g@	c #73064D",
"h@	c #BB0301",
"i@	c #B60306",
"j@	c #B1030A",
"k@	c #AF030B",
"l@	c #B40304",
"m@	c #920223",
"n@	c #42007C",
"o@	c #0300D8",
"p@	c #0207FB",
"q@	c #0C0DF5",
"r@	c #4A1BAE",
"s@	c #64066B",
"t@	c #44068A",
"u@	c #280499",
"v@	c #0E025C",
"w@	c #00063F",
"x@	c #000730",
"y@	c #000534",
"z@	c #000151",
"A@	c #000093",
"B@	c #0100C1",
"C@	c #0100BD",
"D@	c #0000BC",
"E@	c #0000BD",
"F@	c #0000BF",
"G@	c #0000BB",
"H@	c #00008E",
"I@	c #070627",
"J@	c #0D0B12",
"K@	c #090713",
"L@	c #060510",
"M@	c #08060F",
"N@	c #060522",
"O@	c #00007F",
"P@	c #0000B9",
"Q@	c #05069F",
"R@	c #0103B0",
"S@	c #2D0187",
"T@	c #530266",
"U@	c #770344",
"V@	c #9D0522",
"W@	c #B70509",
"X@	c #720348",
"Y@	c #1100B9",
"Z@	c #0406F0",
"`@	c #3C3CF9",
" #	c #0808DF",
".#	c #0101C5",
"+#	c #000131",
"@#	c #0F0E1D",
"##	c #0C0A17",
"$#	c #070513",
"%#	c #0B0916",
"&#	c #030424",
"*#	c #00008B",
"=#	c #0000B8",
"-#	c #0000B7",
";#	c #0000B6",
">#	c #0000A5",
",#	c #040314",
"'#	c #100F1E",
")#	c #1A1826",
"!#	c #6E6E73",
"~#	c #868589",
"{#	c #46444E",
"]#	c #0F0D19",
"^#	c #050523",
"/#	c #00009D",
"(#	c #0000B1",
"_#	c #0303A3",
":#	c #0B0B99",
"<#	c #00009C",
"[#	c #0000A1",
"}#	c #0000A7",
"|#	c #0000AD",
"1#	c #0101EE",
"2#	c #5050F2",
"3#	c #0000B5",
"4#	c #0000BA",
"5#	c #000049",
"6#	c #0E0E19",
"7#	c #100E1D",
"8#	c #4C4B53",
"9#	c #969698",
"0#	c #8C8C8E",
"a#	c #34333D",
"b#	c #0E0D17",
"c#	c #010137",
"d#	c #0000AF",
"e#	c #0000AE",
"f#	c #0000B4",
"g#	c #00003F",
"h#	c #0F0D1B",
"i#	c #191724",
"j#	c #8D8C8F",
"k#	c #B0B0B0",
"l#	c #AFAFAE",
"m#	c #B6B6B6",
"n#	c #403F48",
"o#	c #0C0A1A",
"p#	c #00006F",
"q#	c #0000AB",
"r#	c #00009B",
"s#	c #0A0977",
"t#	c #00007A",
"u#	c #000082",
"v#	c #000088",
"w#	c #010094",
"x#	c #0403E1",
"y#	c #0000BE",
"z#	c #0000AC",
"A#	c #000091",
"B#	c #030313",
"C#	c #121022",
"D#	c #46454D",
"E#	c #AFAFAF",
"F#	c #B2B2B1",
"G#	c #A5A5A6",
"H#	c #201E2B",
"I#	c #070620",
"J#	c #000095",
"K#	c #0100A6",
"L#	c #0000A3",
"M#	c #01019C",
"N#	c #010116",
"O#	c #110F20",
"P#	c #393842",
"Q#	c #ACACAC",
"R#	c #AEAEAE",
"S#	c #ADADAD",
"T#	c #B1B1B1",
"U#	c #8A8A8C",
"V#	c #090718",
"W#	c #03035A",
"X#	c #050598",
"Y#	c #040493",
"Z#	c #040589",
"`#	c #02024C",
" $	c #000054",
".$	c #00005D",
"+$	c #010066",
"@$	c #01016E",
"#$	c #00007B",
"$$	c #0100A2",
"%$	c #0100A1",
"&$	c #0100A0",
"*$	c #0000A2",
"=$	c #060667",
"-$	c #090914",
";$	c #12111F",
">$	c #737278",
",$	c #B7B7B6",
"'$	c #42414A",
")$	c #09081D",
"!$	c #02027D",
"~$	c #04038A",
"{$	c #000086",
"]$	c #000080",
"^$	c #0E0E86",
"/$	c #222390",
"($	c #2B2B92",
"_$	c #373685",
":$	c #090910",
"<$	c #0E0D1C",
"[$	c #3B3A44",
"}$	c #89888B",
"|$	c #0A0817",
"1$	c #131234",
"2$	c #101042",
"3$	c #09093D",
"4$	c #000038",
"5$	c #00003C",
"6$	c #010141",
"7$	c #01004B",
"8$	c #00007E",
"9$	c #000096",
"0$	c #000092",
"a$	c #0B0C56",
"b$	c #08080E",
"c$	c #12101F",
"d$	c #6D6D72",
"e$	c #34343F",
"f$	c #0B0914",
"g$	c #070705",
"h$	c #0B0912",
"i$	c #13111D",
"j$	c #515056",
"k$	c #5E5D63",
"l$	c #24222E",
"m$	c #030207",
"n$	c #090811",
"o$	c #211F2C",
"p$	c #919193",
"q$	c #B3B3B2",
"r$	c #3F3E48",
"s$	c #0C0B17",
"t$	c #0C0C3E",
"u$	c #07074B",
"v$	c #05046F",
"w$	c #050469",
"x$	c #020157",
"y$	c #050459",
"z$	c #060455",
"A$	c #060550",
"B$	c #08072D",
"C$	c #030304",
"D$	c #0D0B18",
"E$	c #36343F",
"F$	c #A2A2A3",
"G$	c #B3B3B3",
"H$	c #B2B2B2",
"I$	c #828185",
"J$	c #13111F",
"K$	c #17151B",
"L$	c #070708",
"M$	c #121219",
"N$	c #13111C",
"O$	c #0F0D18",
"P$	c #0D0C15",
"Q$	c #000001",
"R$	c #080612",
"S$	c #2C2B36",
"T$	c #77767B",
"U$	c #807F83",
"V$	c #4B4952",
"W$	c #141318",
"X$	c #0C0C09",
"Y$	c #050406",
"Z$	c #020106",
"`$	c #2D2B37",
" %	c #525159",
".%	c #46464F",
"+%	c #161422",
"@%	c #06050D",
"#%	c #E2E2E2",
"$%	c #E1E1E4",
"%%	c #C8C7C9",
"&%	c #C0C0C2",
"*%	c #C1C1C3",
"=%	c #D6D6D7",
"-%	c #EDEDF0",
";%	c #959495",
">%	c #000000",
",%	c #000009",
"'%	c #02010D",
")%	c #DDDDDE",
"!%	c #DEDEE1",
"~%	c #E1E0E3",
"{%	c #E4E4E7",
"]%	c #E7E6EA",
"^%	c #A5A4A6",
"/%	c #0E0E10",
"(%	c #07060F",
"_%	c #0C0A16",
":%	c #090812",
"<%	c #403E46",
"[%	c #D0CFD9",
"}%	c #E9E9F4",
"|%	c #E7E7EE",
"1%	c #E8E8EF",
"2%	c #EEEDF2",
"3%	c #FEFEFE",
"4%	c #FFFFFE",
"5%	c #FFFFFF",
"6%	c #F3F3F5",
"7%	c #E8E8EB",
"8%	c #E6E5E9",
"9%	c #CFCECF",
"0%	c #A0A0A0",
"a%	c #9F9F9F",
"b%	c #CDCDD2",
"c%	c #E6E6E7",
"d%	c #E8E7EA",
"e%	c #F1F0F3",
"f%	c #FCFCFC",
"g%	c #FBFAFB",
"h%	c #F1F1F5",
"i%	c #F7F6FE",
"j%	c #D1D1D6",
"k%	c #B4B3B4",
"l%	c #CECECF",
"m%	c #F7F6FD",
"n%	c #EFEEF8",
"o%	c #EEEDFA",
"p%	c #EFEEFA",
"q%	c #F0EFFA",
"r%	c #F4F3F9",
"s%	c #F1F0F7",
"t%	c #EDEDF2",
"u%	c #EDEDED",
"v%	c #EEEDF0",
"w%	c #F0EFF2",
"x%	c #F4F4F8",
"y%	c #F3F2F6",
"z%	c #EDECEF",
"A%	c #EAEAF0",
"B%	c #EAE9F4",
"C%	c #EBEAF6",
"D%	c #EDECF8",
"E%	c #EEECF7",
"F%	c #EDECF5",
"G%	c #F0EFF8",
"H%	c #F8F8FC",
"I%	c #FCFCFD",
"J%	c #FAF9FC",
"K%	c #F6F6FB",
"L%	c #F2F2F5",
"M%	c #F2F2F3",
"N%	c #F6F6F8",
"O%	c #FAF9FD",
"P%	c #F9F8FC",
"Q%	c #F5F4F8",
"R%	c #F3F3FA",
"S%	c #F4F3FE",
"T%	c #F5F4FE",
"U%	c #F3F3FE",
"V%	c #F4F2FD",
"W%	c #F2F1F6",
"X%	c #F0EFF5",
"Y%	c #EFEEFB",
"Z%	c #EFEDFA",
"`%	c #EFEDF9",
" &	c #F0EFFB",
".&	c #F1EFFC",
"+&	c #F2F1FD",
"@&	c #F2F2FD",
"#&	c #F3F2FD",
"$&	c #F4F4FE",
"%&	c #F5F5FE",
"&&	c #F6F5FD",
"*&	c #F6F5FE",
"=&	c #F5F5FB",
"-&	c #F6F5F5",
";&	c #F7F6FF",
">&	c #F6F6FE",
",&	c #F6F6F9",
"'&	c #F8F5FB",
")&	c #F4F4F9",
"!&	c #F4F3FF",
"~&	c #F3F2FE",
"{&	c #F3F1FE",
"]&	c #F1F1FD",
"^&	c #F4F4FF",
"/&	c #F5F5FF",
"(&	c #F6F6FF",
"_&	c #F7F7FE",
":&	c #F6F6FD",
"<&	c #F6F5FF",
"                                                                                                ",
"                                        . + @ # # $ % & * = - ;                                 ",
"                                    > , ' ) ! ~ { ] ^ / ( _ : < [ } |                           ",
"                                1 2 3 4 5 6 7 8 9 0 a b b c c b b d e f                         ",
"                              g h i j k l m n o p q r s t u v w x y z A B                       ",
"                          C D E F G H I J K L M b N     O P Q R S T U b V W                     ",
"                        X Y Z `  ...+.@.#.$.%.&.          *.=.-.;.>.,.'.b ).!.                  ",
"                      ~.{.].^./.(._.:.<.[.}.|.            1.2.3.4.5.6.7.8.9.0.                  ",
"                    a.b.c.d.e.f.g.h.i.j.b k.l.m.n.o.p.q.r.s.t.u.v.w.x.y.z.A.B.C.                ",
"                  D.E.F.G.H.I.J.K.L.M.N.O.P.Q.R.S.T.U.V.W.X.Y.Z.`. +.+++@+#+( $+                ",
"                %+&+*+*+*+=+=+-+;+>+,+'+)+!+~+{+{+]+^+/+(+(+_+(+(+/+:+<+[+]+}+|+1+2+            ",
"              3+4+5+E.E.6+7+5+8+9+/+^+{+0+a+b+c+d+e+f+g+h+i+j+i+k+l+m+n+o+p+q+r+s+t+u+v+        ",
"          w+x+y+z+A+B+C+D+E+F+G+H+I+J+K+L+M+N+O+P+Q+R+S+T+U+V+W+X+Y+Z+`+ @.@+@@@#@$@%@&@*@      ",
"        =@-@;@>@,@'@)@!@~@{@]@^@/@(@_@:@<@[@}@|@1@|@2@2@3@&@4@&@5@6@5@7@8@9@0@a@b@c@d@e@f@      ",
"      g@h@i@j@k@l@m@n@o@p@q@r@s@t@u@v@w@x@y@z@A@B@C@C@C@D@E@F@E@G@d@H@I@J@K@L@M@N@O@E@P@P@Q@    ",
"    R@S@T@U@V@W@X@Y@Z@`@ #.#E@E@E@+#@###$#$#%#&#*#D@=#=#-#-#-#;#=#>#,#'#)#!#~#{#]#^#/#f@(#_#    ",
"  :#<#[#}#|#7@7@5@1#2#|@;#3#3#4#5#6#7#8#9#0#a#b#c#|#(#7@7@d#e#e#f#g#h#i#j#k#l#m#n#o#p#q#b@r#    ",
"  s#t#u#v#H@w#/#1@x#y#q#z#z#|#A#B#C#D#E#k#F#G#H#I#J#b@K#K#>#L#L#M#N#O#P#Q#R#S#T#U#V#W#X#Y#Z#    ",
"    `# $.$+$@$#$;#=#$$$$%$&$*$=$-$;$>$T#S#S#,$'$)$!$~${$]$^$/$($_$:$<$[$R#R#S#T#}$|$1$          ",
"    2$3$4$5$6$7$8$9$J#A@A@0$0$a$b$c$d$T#R#R#m#e$f$    g$h$i$j$k$l$m$n$o$p$R#R#q$r$s$            ",
"              t$u$v$w$x$y$z$A$B$C$D$E$F$G$H$I$J$K$      L$M$N$O$P$  Q$R$S$T$U$V$]#W$            ",
"                      X$Y$Z$Q$    Q$D$`$ %.%+%@%      #%$%%%&%*%=%-%;%>%Q$,%'%,%                ",
"                        )%!%~%{%]%^%/%(%_%:%<%[%}%}%|%1%2%3%4%3%5%6%7%8%9%0%a%b%                ",
"                    c%d%e%f%5%5%g%h%i%j%k%l%m%n%o%p%p%p%p%q%r%r%s%t%u%v%w%x%y%z%A%B%C%          ",
"                D%E%F%G%H%I%I%J%K%L%M%N%O%P%Q%Q%R%S%T%T%T%S%U%U%V%6%Q%Q%        W%X%Y%o%Z%      ",
"        `%p% &.&+&@&#&$&$&%&&&*&=&-&              m%;&;&;&;&;&;&>&,&            '&)&!&~&{&]&    ",
"      +&~&S%^&/&/&(&(&m%                                                          _&:&>&<&      ",
"                                                                                                ",
"                                                                                                "};
