<?xml version="1.0" encoding="UTF-8" standalone="no"?>
<!-- Created with Inkscape (http://www.inkscape.org/) -->

<svg
   xmlns:dc="http://purl.org/dc/elements/1.1/"
   xmlns:cc="http://creativecommons.org/ns#"
   xmlns:rdf="http://www.w3.org/1999/02/22-rdf-syntax-ns#"
   xmlns:svg="http://www.w3.org/2000/svg"
   xmlns="http://www.w3.org/2000/svg"
   xmlns:xlink="http://www.w3.org/1999/xlink"
   xmlns:sodipodi="http://sodipodi.sourceforge.net/DTD/sodipodi-0.dtd"
   xmlns:inkscape="http://www.inkscape.org/namespaces/inkscape"
   width="1122.243"
   height="665.63599"
   id="svg2"
   sodipodi:version="0.32"
   inkscape:version="0.47 r22583"
   sodipodi:docname="oobd_logo_tooling.svg"
   inkscape:output_extension="org.inkscape.output.svg.inkscape"
   version="1.0"
   inkscape:export-filename="/home/steffen/Desktop/workcopies/oobd/trunk/oobd_logo.png"
   inkscape:export-xdpi="55.150002"
   inkscape:export-ydpi="55.150002">
  <defs
     id="defs4">
    <linearGradient
       inkscape:collect="always"
       id="linearGradient3222">
      <stop
         style="stop-color:#4d4d4d;stop-opacity:1;"
         offset="0"
         id="stop3224" />
      <stop
         style="stop-color:#4d4d4d;stop-opacity:0;"
         offset="1"
         id="stop3226" />
    </linearGradient>
    <linearGradient
       id="linearGradient3214">
      <stop
         style="stop-color:#3034a1;stop-opacity:1;"
         offset="0"
         id="stop3216" />
      <stop
         style="stop-color:#9f9f9f;stop-opacity:1;"
         offset="1"
         id="stop3218" />
    </linearGradient>
    <linearGradient
       id="linearGradient3206">
      <stop
         style="stop-color:#ff0000;stop-opacity:1;"
         offset="0"
         id="stop3208" />
      <stop
         style="stop-color:#fffffd;stop-opacity:1;"
         offset="1"
         id="stop3210" />
    </linearGradient>
    <inkscape:perspective
       sodipodi:type="inkscape:persp3d"
       inkscape:vp_x="0 : 526.18109 : 1"
       inkscape:vp_y="0 : 1000 : 0"
       inkscape:vp_z="744.09448 : 526.18109 : 1"
       inkscape:persp3d-origin="372.04724 : 350.78739 : 1"
       id="perspective10" />
    <inkscape:perspective
       id="perspective2994"
       inkscape:persp3d-origin="0.5 : 0.33333333 : 1"
       inkscape:vp_z="1 : 0.5 : 1"
       inkscape:vp_y="0 : 1000 : 0"
       inkscape:vp_x="0 : 0.5 : 1"
       sodipodi:type="inkscape:persp3d" />
    <linearGradient
       inkscape:collect="always"
       xlink:href="#linearGradient3222-5"
       id="linearGradient2916-1"
       gradientUnits="userSpaceOnUse"
       x1="318.7919"
       y1="212.28041"
       x2="266.0596"
       y2="135.5088"
       gradientTransform="matrix(0.81623127,0,0,0.81623127,63.35401,68.788476)" />
    <linearGradient
       inkscape:collect="always"
       id="linearGradient3222-5">
      <stop
         style="stop-color:#4d4d4d;stop-opacity:1;"
         offset="0"
         id="stop3224-4" />
      <stop
         style="stop-color:#4d4d4d;stop-opacity:0;"
         offset="1"
         id="stop3226-1" />
    </linearGradient>
    <linearGradient
       inkscape:collect="always"
       xlink:href="#linearGradient3206"
       id="linearGradient3822"
       gradientUnits="userSpaceOnUse"
       gradientTransform="matrix(0.90346505,0,0,0.90346505,48.985264,-14.248728)"
       x1="542.73981"
       y1="0.72256786"
       x2="360.83688"
       y2="-179.08458" />
    <linearGradient
       inkscape:collect="always"
       xlink:href="#linearGradient3222-5"
       id="linearGradient3828"
       gradientUnits="userSpaceOnUse"
       gradientTransform="matrix(0.81623127,0,0,0.81623127,503.35401,66.232089)"
       x1="304.79025"
       y1="194.77837"
       x2="266.0596"
       y2="135.5088" />
    <linearGradient
       inkscape:collect="always"
       xlink:href="#linearGradient3222"
       id="linearGradient3831"
       gradientUnits="userSpaceOnUse"
       gradientTransform="matrix(0.81623127,0,0,0.81623127,63.35401,68.788476)"
       x1="318.7919"
       y1="212.28041"
       x2="266.0596"
       y2="135.5088" />
    <linearGradient
       inkscape:collect="always"
       xlink:href="#linearGradient3214"
       id="linearGradient3834"
       gradientUnits="userSpaceOnUse"
       x1="456.69482"
       y1="175.61429"
       x2="133.446"
       y2="-149.65485" />
    <linearGradient
       inkscape:collect="always"
       xlink:href="#linearGradient3214"
       id="linearGradient3891"
       gradientUnits="userSpaceOnUse"
       x1="456.69482"
       y1="175.61429"
       x2="133.446"
       y2="-149.65485" />
    <linearGradient
       inkscape:collect="always"
       xlink:href="#linearGradient3222"
       id="linearGradient3893"
       gradientUnits="userSpaceOnUse"
       gradientTransform="matrix(0.81623127,0,0,0.81623127,63.35401,68.788476)"
       x1="318.7919"
       y1="212.28041"
       x2="266.0596"
       y2="135.5088" />
    <linearGradient
       inkscape:collect="always"
       xlink:href="#linearGradient3222-5"
       id="linearGradient3895"
       gradientUnits="userSpaceOnUse"
       gradientTransform="matrix(0.81623127,0,0,0.81623127,503.35401,66.232089)"
       x1="304.79025"
       y1="194.77837"
       x2="266.0596"
       y2="135.5088" />
    <linearGradient
       inkscape:collect="always"
       xlink:href="#linearGradient3206"
       id="linearGradient3897"
       gradientUnits="userSpaceOnUse"
       gradientTransform="matrix(0.90346505,0,0,0.90346505,48.985264,-14.248728)"
       x1="542.73981"
       y1="0.72256786"
       x2="360.83688"
       y2="-179.08458" />
    <linearGradient
       inkscape:collect="always"
       xlink:href="#linearGradient3206"
       id="linearGradient3769"
       gradientUnits="userSpaceOnUse"
       gradientTransform="matrix(0.90346505,0,0,0.90346505,49.144701,-14.248728)"
       x1="542.73981"
       y1="0.72256786"
       x2="360.83688"
       y2="-179.08458" />
    <linearGradient
       inkscape:collect="always"
       xlink:href="#linearGradient3222-5"
       id="linearGradient3775"
       gradientUnits="userSpaceOnUse"
       gradientTransform="matrix(0.81623127,0,0,0.81623127,503.51345,66.232089)"
       x1="304.79025"
       y1="194.77837"
       x2="266.0596"
       y2="135.5088" />
    <linearGradient
       inkscape:collect="always"
       xlink:href="#linearGradient3222"
       id="linearGradient3778"
       gradientUnits="userSpaceOnUse"
       gradientTransform="matrix(0.81623127,0,0,0.81623127,63.513447,68.788476)"
       x1="318.7919"
       y1="212.28041"
       x2="266.0596"
       y2="135.5088" />
    <linearGradient
       inkscape:collect="always"
       xlink:href="#linearGradient3214"
       id="linearGradient3781"
       gradientUnits="userSpaceOnUse"
       x1="456.69482"
       y1="175.61429"
       x2="133.446"
       y2="-149.65485"
       gradientTransform="translate(30.992834,147.60179)" />
  </defs>
  <sodipodi:namedview
     id="base"
     pagecolor="#ffffff"
     bordercolor="#666666"
     borderopacity="1.0"
     inkscape:pageopacity="0.0"
     inkscape:pageshadow="2"
     inkscape:zoom="0.7"
     inkscape:cx="490.13777"
     inkscape:cy="303.69834"
     inkscape:document-units="px"
     inkscape:current-layer="layer1"
     showgrid="true"
     inkscape:object-nodes="true"
     objecttolerance="10000"
     gridtolerance="10000"
     inkscape:snap-bbox="true"
     inkscape:bbox-paths="true"
     inkscape:snap-nodes="false"
     inkscape:window-width="1435"
     inkscape:window-height="1205"
     inkscape:window-x="924"
     inkscape:window-y="197"
     inkscape:window-maximized="0">
    <inkscape:grid
       type="xygrid"
       id="grid2406"
       visible="true"
       enabled="true"
       empspacing="5"
       snapvisiblegridlinesonly="true" />
  </sodipodi:namedview>
  <metadata
     id="metadata7">
    <rdf:RDF>
      <cc:Work
         rdf:about="">
        <dc:format>image/svg+xml</dc:format>
        <dc:type
           rdf:resource="http://purl.org/dc/dcmitype/StillImage" />
        <dc:title />
      </cc:Work>
    </rdf:RDF>
  </metadata>
  <g
     inkscape:label="Ebene 1"
     inkscape:groupmode="layer"
     id="layer1"
     transform="translate(30.833397,147.60179)">
    <path
       style="fill:url(#linearGradient3781);fill-opacity:1;fill-rule:evenodd;stroke:#000000;stroke-width:1.87709510000000002px;stroke-linecap:butt;stroke-linejoin:miter;stroke-opacity:1"
       d="M 910.9375 222.71875 C 920.58341 238.64866 928.59573 255.4751 928.375 270.4375 C 927.54105 273.6757 929.53463 278.48166 925.875 280.375 C 867.0746 282.29817 775.52649 268.10453 717.03125 264.5 C 696.22457 263.53567 675.41159 263.19752 654.59375 263.1875 C 633.05011 277.83931 614.32399 294.09667 601 310.53125 C 586.22089 301.03549 569.12892 282.85749 547.0625 264.46875 C 541.64324 264.52187 536.2312 264.57316 530.8125 264.59375 C 452.07812 263.03632 325.8833 290.16768 247.53125 295.15625 C 237.43128 297.52991 225.99456 292.94279 220.9375 283.75 C 217.83233 278.35648 218.88358 271.76392 222.4375 264.625 C 202.98369 272.7298 183.54471 280.91872 164.46875 289.875 C 137.73737 302.8598 111.17345 318.24977 91.75 341.21875 C 79.559736 355.8111 70.306073 374.65387 72.875 394.125 C 74.975551 410.87413 83.273713 427.16901 96.4375 437.875 C 101.97736 442.57307 109.66743 441.31198 116.375 441.59375 C 141.22316 440.59724 166.05029 439.26366 190.84375 437.28125 C 211.34104 435.66832 234.37656 442.13034 254.875 440.53125 C 267.44053 263.8128 485.94762 276.05031 508.25 420.9375 C 538.87696 421.97499 667.09245 421.09495 697.78125 420.8125 C 706.64594 268.86647 919.93339 262.88874 946.09375 418.71875 C 985.34116 420.02955 1018.8148 417.63027 1048.5938 420.90625 C 1051.8074 410.41645 1047.6706 399.67034 1047.25 389.09375 C 1035.143 314.88014 980.89744 249.65176 910.9375 222.71875 z "
       transform="translate(-30.833397,-147.60179)"
       id="path2413" />
    <path
       style="fill:url(#linearGradient3778);fill-opacity:1;fill-rule:evenodd;stroke:#000000;stroke-width:0.81623125;stroke-linecap:butt;stroke-linejoin:miter;stroke-miterlimit:4;stroke-opacity:1;stroke-dasharray:none"
       d="m 348.36075,190.81807 c -50.72541,0 -91.87703,38.48368 -91.87703,85.88283 0,47.39915 41.15162,85.85733 91.87703,85.85733 50.72541,0 91.90255,-38.45818 91.90254,-85.85733 0,-47.39915 -41.17713,-85.88283 -91.90254,-85.88283 z"
       id="path2912" />
    <path
       style="fill:url(#linearGradient3775);fill-opacity:1;fill-rule:evenodd;stroke:#000000;stroke-width:0.81623125;stroke-linecap:butt;stroke-linejoin:miter;stroke-miterlimit:4;stroke-opacity:1;stroke-dasharray:none"
       d="m 788.36075,188.26168 c -50.72541,0 -91.87703,38.48368 -91.87703,85.88283 0,47.39915 41.15162,85.85733 91.87703,85.85733 50.72541,0 91.90255,-38.45818 91.90254,-85.85733 0,-47.39915 -41.17713,-85.88283 -91.90254,-85.88283 z"
       id="path2912-5" />
    <path
       sodipodi:type="arc"
       style="fill:#666666;fill-opacity:1"
       id="path3254"
       sodipodi:cx="93.944183"
       sodipodi:cy="-502.26257"
       sodipodi:rx="65.659912"
       sodipodi:ry="85.862968"
       d="m 154.92937,-470.44421 a 65.659912,85.862968 0 0 1 -104.622152,32.3391 l 43.636965,-64.15746 z"
       sodipodi:start="0.37962414"
       sodipodi:end="2.2977422"
       transform="matrix(0,-1,1,0,855.62624,134.27654)" />
    <path
       sodipodi:nodetypes="ccccscccscccccccccc"
       id="path3028"
       d="M 580.12806,-146.77576 C 458.5126,-134.25646 359.0396,-45.534066 272.86985,36.100924 c -14.70233,16.329791 -63.33343,53.168461 -52.11179,72.659896 4.56887,8.30536 14.89196,12.4525 24.01693,10.30798 70.78834,-4.507 184.79717,-29.036078 255.93093,-27.628994 56.07878,-0.213064 112.19555,-2.673353 168.25083,-0.07538 52.8484,3.256567 135.56021,16.075484 188.68431,14.337964 3.30635,-1.71057 1.49096,-6.044706 2.24441,-8.970307 0.36784,-24.93477 -24.44011,-55.645435 -37.49213,-76.309944 -14.2571,-22.5724349 -16.98608,-50.959921 -33.00019,-72.390537 -33.36534,-46.298183 -85.22568,-78.360572 -141.18322,-88.936312 -22.3845,-4.49432 -45.27037,-6.22252 -68.08187,-5.87105 z m 15.16127,64.682454 c 46.05456,0.875125 92.17363,23.195982 118.69182,61.345078 7.81672,11.9460792 13.50654,25.4172903 15.72684,39.560674 C 675.1543,14.31242 620.35351,15.127877 565.687,16.498067 c -47.60345,0.937551 -142.67058,6.963413 -190.27548,7.818437 25.89899,-40.432034 110.62377,-80.631555 156.40246,-96.865863 20.34372,-7.045752 42.00367,-9.806047 63.47535,-9.543947 z"
       style="fill:url(#linearGradient3769);fill-opacity:1;fill-rule:evenodd;stroke:#000000;stroke-width:1.56377864px;stroke-linecap:butt;stroke-linejoin:miter;stroke-opacity:1" />
    <g
       id="g3916">
      <g
         id="text3878"
         style="font-size:172px;font-style:normal;font-weight:normal;fill:#000000;fill-opacity:1;stroke:none;font-family:Bitstream Vera Sans">
        <path
           id="path3900"
           style="font-variant:normal;font-stretch:normal;font-family:Astro 867;-inkscape-font-specification:'Astro 867,'"
           d="m 43.178724,370.00993 c 20.153441,1.6e-4 37.353424,7.29713 51.6,21.89091 14.593796,14.59407 21.890766,31.96779 21.890906,52.12121 -1.4e-4,20.50108 -7.29711,38.04854 -21.890906,52.64243 -14.246576,14.24648 -31.446559,21.36971 -51.6,21.36969 -20.501063,2e-5 -38.0485205,-7.12321 -52.6424239,-21.36969 -14.2464721,-14.59389 -21.3696971,-32.14135 -21.3696971,-52.64243 0,-20.15342 7.123225,-37.52714 21.3696971,-52.12121 C 5.1302035,377.30706 22.677661,370.01009 43.178724,370.00993 m 0,37.00606 c -10.424306,1.3e-4 -19.284903,3.64861 -26.581818,10.94546 -6.9495353,7.29707 -10.4242793,15.98393 -10.4242423,26.0606 -3.7e-5,10.42432 3.474707,19.28492 10.4242423,26.58182 7.296915,6.94955 16.157512,10.42429 26.581818,10.42424 10.076684,5e-5 18.763544,-3.47469 26.060606,-10.42424 7.296863,-7.2969 10.945344,-16.1575 10.945455,-26.58182 -1.11e-4,-10.07667 -3.648592,-18.76353 -10.945455,-26.0606 -7.297062,-7.29685 -15.983922,-10.94533 -26.060606,-10.94546" />
        <path
           id="path3902"
           style="font-variant:normal;font-stretch:normal;font-family:Astro 867;-inkscape-font-specification:'Astro 867,'"
           d="m 197.0381,370.00993 c 20.15344,1.6e-4 37.35342,7.29713 51.6,21.89091 14.5938,14.59407 21.89076,31.96779 21.89091,52.12121 -1.5e-4,20.50108 -7.29711,38.04854 -21.89091,52.64243 -14.24658,14.24648 -31.44656,21.36971 -51.6,21.36969 -20.50106,2e-5 -38.04852,-7.12321 -52.64242,-21.36969 -14.24648,-14.59389 -21.3697,-32.14135 -21.3697,-52.64243 0,-20.15342 7.12322,-37.52714 21.3697,-52.12121 14.5939,-14.59378 32.14136,-21.89075 52.64242,-21.89091 m 0,37.00606 c -10.42431,1.3e-4 -19.2849,3.64861 -26.58182,10.94546 -6.94953,7.29707 -10.42428,15.98393 -10.42424,26.0606 -4e-5,10.42432 3.47471,19.28492 10.42424,26.58182 7.29692,6.94955 16.15751,10.42429 26.58182,10.42424 10.07668,5e-5 18.76354,-3.47469 26.06061,-10.42424 7.29686,-7.2969 10.94534,-16.1575 10.94545,-26.58182 -1.1e-4,-10.07667 -3.64859,-18.76353 -10.94545,-26.0606 -7.29707,-7.29685 -15.98393,-10.94533 -26.06061,-10.94546" />
        <path
           id="path3904"
           style="font-variant:normal;font-stretch:normal;font-family:Astro 867;-inkscape-font-specification:'Astro 867,'"
           d="m 313.89141,481.02811 55.24849,0 c 5.21202,5e-5 9.55545,-1.73732 13.0303,-5.21212 3.82211,-3.82216 5.73322,-8.33933 5.73333,-13.55151 -1.1e-4,-4.86457 -1.91122,-9.03427 -5.73333,-12.50909 -3.47485,-3.82214 -7.81828,-5.73325 -13.0303,-5.73334 l -55.24849,0 0,37.00606 m 0,-74.01212 55.24849,0 c 15.28878,1.3e-4 28.31907,5.55972 39.09091,16.67879 10.77157,10.77181 16.15743,23.62837 16.15757,38.5697 -1.4e-4,15.63641 -5.386,28.84044 -16.15757,39.61212 -10.77184,10.77173 -23.80213,16.15759 -39.09091,16.15757 -15.63644,2e-5 -31.09905,2e-5 -46.38788,0 -15.28892,2e-5 -30.57779,2e-5 -45.86667,0 l 0,-148.02424 37.00606,0 0,37.00606" />
        <path
           id="path3906"
           style="font-variant:normal;font-stretch:normal;font-family:Astro 867;-inkscape-font-specification:'Astro 867,'"
           d="m 467.75079,481.02811 37.00606,0 c 10.07668,5e-5 18.76354,-3.47469 26.06061,-10.42424 7.29686,-7.2969 10.94534,-16.1575 10.94545,-26.58182 -1.1e-4,-10.07667 -3.64859,-18.76353 -10.94545,-26.0606 -7.29707,-7.29685 -15.98393,-10.94533 -26.06061,-10.94546 l -37.00606,0 0,74.01212 m -37.00606,37.00606 c 0,-24.67066 0,-49.16761 0,-73.49091 0,-24.67059 0,-49.51501 0,-74.53333 l 74.01212,0 c 20.15344,1.6e-4 37.35342,7.29713 51.6,21.89091 14.5938,14.59407 21.89076,31.96779 21.89091,52.12121 -1.5e-4,20.50108 -7.29711,38.04854 -21.89091,52.64243 -14.24658,14.24648 -31.44656,21.36971 -51.6,21.36969 l -74.01212,0" />
        <path
           id="path3908"
           style="font-variant:normal;font-stretch:normal;font-family:Astro 867;-inkscape-font-specification:'Astro 867,'"
           d="m 602.84653,481.02811 c 5.2121,5e-5 9.55553,1.91116 13.0303,5.73334 3.82219,3.47479 5.7333,7.64448 5.73333,12.50909 -3e-5,5.21215 -1.91114,9.72931 -5.73333,13.55151 -3.47477,3.47477 -7.8182,5.21214 -13.0303,5.21212 -5.21214,2e-5 -9.55557,-1.73735 -13.03031,-5.21212 -3.47474,-3.8222 -5.21212,-8.33936 -5.21212,-13.55151 0,-4.86461 1.73738,-9.0343 5.21212,-12.50909 3.47474,-3.82218 7.81817,-5.73329 13.03031,-5.73334" />
        <path
           id="path3910"
           style="font-variant:normal;font-stretch:normal;font-family:Astro 867;-inkscape-font-specification:'Astro 867,'"
           d="m 709.67872,370.00993 c 20.15345,1.6e-4 37.35343,7.29713 51.6,21.89091 14.5938,14.59407 21.89077,31.96779 21.89091,52.12121 -1.4e-4,20.50108 -7.29711,38.04854 -21.89091,52.64243 -14.24657,14.24648 -31.44655,21.36971 -51.6,21.36969 -20.50106,2e-5 -38.04852,-7.12321 -52.64242,-21.36969 -14.24647,-14.59389 -21.3697,-32.14135 -21.3697,-52.64243 0,-20.15342 7.12323,-37.52714 21.3697,-52.12121 14.5939,-14.59378 32.14136,-21.89075 52.64242,-21.89091 m 0,37.00606 c -10.4243,1.3e-4 -19.2849,3.64861 -26.58181,10.94546 -6.94954,7.29707 -10.42428,15.98393 -10.42425,26.0606 -3e-5,10.42432 3.47471,19.28492 10.42425,26.58182 7.29691,6.94955 16.15751,10.42429 26.58181,10.42424 10.07669,5e-5 18.76355,-3.47469 26.06061,-10.42424 7.29686,-7.2969 10.94534,-16.1575 10.94545,-26.58182 -1.1e-4,-10.07667 -3.64859,-18.76353 -10.94545,-26.0606 -7.29706,-7.29685 -15.98392,-10.94533 -26.06061,-10.94546" />
        <path
           id="path3912"
           style="font-variant:normal;font-stretch:normal;font-family:Astro 867;-inkscape-font-specification:'Astro 867,'"
           d="m 789.52598,444.02205 c 0,-20.5009 7.12322,-37.87462 21.3697,-52.12121 14.5939,-14.59378 32.14136,-21.89075 52.64242,-21.89091 l 73.49091,0 0,37.00606 -73.49091,0 c -10.42431,1.3e-4 -19.2849,3.64861 -26.58182,10.94546 -6.94953,7.29707 -10.42428,15.98393 -10.42424,26.0606 l 0,74.01212 -37.00606,0 0,-74.01212" />
        <path
           id="path3914"
           style="font-variant:normal;font-stretch:normal;font-family:Astro 867;-inkscape-font-specification:'Astro 867,'"
           d="m 1091.4096,444.02205 0,56.81212 -0.5212,0 0,17.2 -73.4909,0 c -20.50109,2e-5 -38.04855,-7.12321 -52.64245,-21.36969 -14.24647,-14.59389 -21.3697,-32.14135 -21.3697,-52.64243 0,-20.15342 7.12323,-37.52714 21.3697,-52.12121 14.5939,-14.59378 32.14136,-21.89075 52.64245,-21.89091 l 73.4909,0 0,37.00606 -73.4909,0 c -10.4243,1.3e-4 -19.28493,3.64861 -26.58184,10.94546 -6.94954,7.29707 -10.42428,15.98393 -10.42425,26.0606 -3e-5,10.42432 3.47471,19.28492 10.42425,26.58182 7.29691,6.94955 16.15754,10.42429 26.58184,10.42424 l 37.006,0 0,-37.00606 37.0061,0" />
      </g>
    </g>
  </g>
</svg>
