<?xml version="1.0" encoding="UTF-8" standalone="no"?>
<!-- Created with Inkscape (http://www.inkscape.org/) -->

<svg
   xmlns:dc="http://purl.org/dc/elements/1.1/"
   xmlns:cc="http://creativecommons.org/ns#"
   xmlns:rdf="http://www.w3.org/1999/02/22-rdf-syntax-ns#"
   xmlns:svg="http://www.w3.org/2000/svg"
   xmlns="http://www.w3.org/2000/svg"
   xmlns:xlink="http://www.w3.org/1999/xlink"
   xmlns:sodipodi="http://sodipodi.sourceforge.net/DTD/sodipodi-0.dtd"
   xmlns:inkscape="http://www.inkscape.org/namespaces/inkscape"
   width="143.6469"
   height="143.6469"
   id="svg2046"
   sodipodi:version="0.32"
   inkscape:version="0.47 r22583"
   version="1.0"
   sodipodi:docname="timer.svg"
   inkscape:output_extension="org.inkscape.output.svg.inkscape"
   inkscape:export-filename="/home/steffen/Desktop/workcopies/oobd/trunk/clients/skds/NBprojects/swing/src/skdsswing/resources/timer_16.png"
   inkscape:export-xdpi="10.02"
   inkscape:export-ydpi="10.02">
  <defs
     id="defs2048">
    <inkscape:perspective
       sodipodi:type="inkscape:persp3d"
       inkscape:vp_x="0 : 79.803741 : 1"
       inkscape:vp_y="0 : 1000 : 0"
       inkscape:vp_z="159.60748 : 79.803741 : 1"
       inkscape:persp3d-origin="79.803741 : 53.202494 : 1"
       id="perspective3818" />
    <linearGradient
       id="linearGradient5190">
      <stop
         style="stop-color:#ffffff;stop-opacity:1;"
         offset="0"
         id="stop5192" />
      <stop
         style="stop-color:#2ab8b8;stop-opacity:1;"
         offset="1"
         id="stop5194" />
    </linearGradient>
    <linearGradient
       inkscape:collect="always"
       xlink:href="#linearGradient5190"
       id="linearGradient2109"
       gradientUnits="userSpaceOnUse"
       gradientTransform="matrix(0.312273,0,0,0.320491,127.55,434.3769)"
       x1="264.582"
       y1="296.37491"
       x2="380.6846"
       y2="553.74487" />
    <linearGradient
       id="linearGradient5197">
      <stop
         style="stop-color:#ffffff;stop-opacity:1"
         offset="0"
         id="stop5199" />
      <stop
         style="stop-color:#ff0000;stop-opacity:1"
         offset="1"
         id="stop5201" />
    </linearGradient>
    <linearGradient
       inkscape:collect="always"
       xlink:href="#linearGradient5197"
       id="linearGradient2107"
       gradientUnits="userSpaceOnUse"
       gradientTransform="matrix(-0.301633,0.08082223,-0.08294933,-0.30957,402.8575,730.1118)"
       x1="249.48328"
       y1="262.87494"
       x2="272.02597"
       y2="427.54285" />
    <linearGradient
       inkscape:collect="always"
       xlink:href="#linearGradient5190"
       id="linearGradient2192"
       gradientUnits="userSpaceOnUse"
       gradientTransform="matrix(0.2810457,0,0,0.2884419,285.2371,359.82618)"
       x1="264.582"
       y1="296.37491"
       x2="380.6846"
       y2="553.74487" />
    <linearGradient
       inkscape:collect="always"
       xlink:href="#linearGradient5190"
       id="linearGradient2195"
       gradientUnits="userSpaceOnUse"
       gradientTransform="matrix(-0.2714697,0.07274001,-0.0746544,-0.278613,533.01385,625.98759)"
       x1="249.48328"
       y1="262.87494"
       x2="272.02597"
       y2="427.54285" />
  </defs>
  <sodipodi:namedview
     id="base"
     pagecolor="#ffffff"
     bordercolor="#666666"
     borderopacity="1.0"
     gridtolerance="10000"
     guidetolerance="10"
     objecttolerance="10"
     inkscape:pageopacity="0.0"
     inkscape:pageshadow="2"
     inkscape:zoom="6.1964513"
     inkscape:cx="35.431661"
     inkscape:cy="71.462909"
     inkscape:document-units="px"
     inkscape:current-layer="layer1"
     inkscape:window-width="1453"
     inkscape:window-height="1185"
     inkscape:window-x="229"
     inkscape:window-y="73"
     showgrid="false"
     inkscape:window-maximized="0" />
  <metadata
     id="metadata2051">
    <rdf:RDF>
      <cc:Work
         rdf:about="">
        <dc:format>image/svg+xml</dc:format>
        <dc:type
           rdf:resource="http://purl.org/dc/dcmitype/StillImage" />
        <dc:title>round error warning button</dc:title>
        <dc:creator>
          <cc:Agent>
            <dc:title>Lumen Design Studio</dc:title>
          </cc:Agent>
        </dc:creator>
        <dc:contributor>
          <cc:Agent>
            <dc:title>Lumen Design Studio</dc:title>
          </cc:Agent>
        </dc:contributor>
        <dc:description>error warning icon</dc:description>
        <dc:subject>
          <rdf:Bag>
            <rdf:li>error</rdf:li>
            <rdf:li>icon</rdf:li>
            <rdf:li>button</rdf:li>
            <rdf:li>red</rdf:li>
            <rdf:li>stop</rdf:li>
            <rdf:li>no</rdf:li>
            <rdf:li>warning</rdf:li>
            <rdf:li>negative</rdf:li>
            <rdf:li>delete</rdf:li>
            <rdf:li>cancel</rdf:li>
          </rdf:Bag>
        </dc:subject>
        <cc:license
           rdf:resource="http://web.resource.org/cc/PublicDomain" />
      </cc:Work>
      <cc:License
         rdf:about="http://web.resource.org/cc/PublicDomain">
        <cc:permits
           rdf:resource="http://web.resource.org/cc/Reproduction" />
        <cc:permits
           rdf:resource="http://web.resource.org/cc/Distribution" />
        <cc:permits
           rdf:resource="http://web.resource.org/cc/DerivativeWorks" />
      </cc:License>
    </rdf:RDF>
  </metadata>
  <g
     inkscape:label="Layer 1"
     inkscape:groupmode="layer"
     id="layer1"
     transform="translate(-319.60508,-437.68159)"
     style="display:inline">
    <path
       transform="matrix(0.2761758,0,0,0.2761758,285.29812,354.98328)"
       d="m 634.28571,559.50507 c 0,138.07118 -111.92882,250 -250,250 -138.07119,0 -250,-111.92882 -250,-250 0,-138.07119 111.92881,-250 250,-250 138.07118,0 250,111.92881 250,250 z"
       sodipodi:ry="250"
       sodipodi:rx="250"
       sodipodi:cy="559.50507"
       sodipodi:cx="384.28571"
       id="path2174"
       style="fill:#25bdbd;fill-opacity:1;fill-rule:evenodd;stroke:#1e9a9b;stroke-width:20.12848282;stroke-linecap:butt;stroke-linejoin:miter;stroke-miterlimit:4;stroke-opacity:1;stroke-dasharray:none;stroke-dashoffset:0;marker-start:none;marker-mid:none;marker-end:none"
       sodipodi:type="arc" />
    <path
       sodipodi:nodetypes="cccc"
       id="path2540"
       d="m 408.21324,570.92519 c 17.14197,-4.59316 30.7559,-15.89238 38.90583,-30.44154 13.23692,-31.33628 -36.15013,42.02992 -76.94216,28.70157 11.85843,4.34898 25.03196,5.22449 38.03633,1.73997 z"
       style="fill:url(#linearGradient2195);fill-opacity:1;fill-rule:evenodd;stroke:none" />
    <path
       style="fill:url(#linearGradient2192);fill-opacity:1;fill-rule:evenodd;stroke:none"
       d="m 391.53382,445.31297 c -35.49333,0 -64.29798,29.56261 -64.29798,65.98994 0,4.92652 0.54671,9.72162 1.54575,14.34093 35.2846,-67.92101 73.30103,-25.16663 122.31635,-39.19194 -9.57189,-24.11799 -32.6379,-41.13893 -59.56412,-41.13893 z"
       id="path2197"
       sodipodi:nodetypes="ccccc" />
    <path
       style="font-size:97.55726624px;font-style:normal;font-weight:normal;opacity:0.73500001;fill:#ffffff;fill-opacity:1;stroke:none;font-family:sans"
       d="m 390.75103,462.38878 0,9.23047 c 3.69862,0.13683 7.10636,0.96868 10.26245,2.55664 3.45348,1.73777 6.1114,4.13573 7.94078,7.13867 1.82929,3.00308 2.72539,6.18838 2.72544,9.5625 -5e-5,3.20552 -0.84704,6.10062 -2.59085,8.73242 -1.74389,2.6319 -4.31962,4.72332 -7.7389,6.27539 4.44508,1.01229 7.86778,3.12005 10.32975,6.3086 2.46186,3.18862 3.70116,7.19502 3.70121,11.98633 -2e-5,2.68296 -0.42392,5.19269 -1.24495,7.53711 l 15.00673,12.61718 c 8.09262,-9.38325 12.01211,-19.91878 12.01211,-32.24023 0,-27.44878 -22.58774,-49.70508 -50.40377,-49.70508 z m 23.38493,69.32813 -8.54644,-7.17188 c -0.0384,4.31124 -1.52212,7.92676 -4.4751,10.85742 -2.99194,2.96928 -6.66019,4.44923 -11.00269,4.44922 -3.65869,10e-6 -6.77294,-1.14235 -9.32032,-3.41992 -2.54741,-2.27755 -4.35726,-5.99376 -5.41723,-11.15625 l -9.21938,1.22851 c 0.61547,6.17476 3.11008,11.19394 7.46972,15.07422 4.35962,3.88031 9.82062,5.81055 16.41992,5.81055 7.3173,0 13.38249,-2.23571 18.16958,-6.74023 2.80452,-2.63903 4.76046,-5.6151 5.92194,-8.93164 z m -8.54644,-7.17188 c 5.1e-4,-0.0568 0,-0.109 0,-0.16602 -3e-5,-4.18394 -1.36902,-7.64313 -4.13862,-10.35937 -2.76969,-2.71618 -6.29117,-4.08395 -10.56528,-4.08398 -0.0414,0 -0.0927,-3.9e-4 -0.13459,0 l 0,2.1582 14.83849,12.45117 z m -14.83849,-14.60937 0,-7.23829 c -1.2508,0.23596 -2.52699,0.36525 -3.86945,0.36524 -0.37615,4e-5 -0.89866,-0.0321 -1.51413,-0.0996 l -1.00942,8.00195 c 2.53693,-0.65877 4.67073,-1.01362 6.393,-1.02929 z m 0,-7.23829 c 2.41292,-0.45519 4.65766,-1.32288 6.72948,-2.65625 3.14574,-2.02445 4.71059,-5.14551 4.71063,-9.36328 -4e-5,-3.34037 -1.14113,-6.1075 -3.43203,-8.30078 -2.10734,-2.01735 -4.77248,-3.09214 -8.00808,-3.2539 l 0,23.57421 z m 0,-23.57421 0,-7.50391 c -0.34859,-0.0129 -0.68966,-0.0332 -1.04307,-0.0332 -5.94964,7e-5 -10.93884,1.68964 -14.93943,5.04687 -4.00062,3.35736 -6.57688,8.07055 -7.70525,14.17774 l 9.25303,1.62695 c 0.68384,-4.45385 2.21614,-7.80033 4.60969,-10.02735 2.39349,-2.22688 5.39354,-3.32023 8.98385,-3.32031 0.29053,0 0.55922,0.0191 0.84118,0.0332 z"
       id="path4325" />
    <path
       style="font-size:97.55726624px;font-style:normal;font-weight:normal;fill:#ffffff;fill-opacity:1;stroke:none;font-family:sans"
       d="m 79.875,35.1875 0,8.6875 c 3.435086,0.128785 6.600022,0.911698 9.53125,2.40625 3.207412,1.63555 5.67596,3.89245 7.375,6.71875 1.698947,2.826428 2.5312,5.82436 2.53125,9 -5.3e-5,3.016958 -0.78669,5.74176 -2.40625,8.21875 -1.61964,2.477077 -4.01185,4.44547 -7.1875,5.90625 4.128359,0.952743 7.3072,2.93651 9.59375,5.9375 2.28645,3.00106 3.43745,6.77179 3.4375,11.28125 -2e-5,2.525142 -0.39372,4.887244 -1.15625,7.09375 l 13.9375,11.875 c 7.51602,-8.8313 11.15625,-18.747091 11.15625,-30.34375 0,-25.834141 -20.97836,-46.781249 -46.8125,-46.78125 z m 21.71875,65.25 -7.9375,-6.75 c -0.03569,4.057646 -1.413676,7.46048 -4.15625,10.21875 -2.77877,2.79461 -6.185649,4.18751 -10.21875,4.1875 -3.39801,1e-5 -6.290378,-1.07515 -8.65625,-3.21875 -2.36591,-2.14358 -4.046803,-5.641181 -5.03125,-10.5 l -8.5625,1.15625 c 0.57162,5.81153 2.888488,10.53547 6.9375,14.1875 4.049,3.65205 9.120899,5.46875 15.25,5.46875 6.79595,0 12.428989,-2.1042 16.875,-6.34375 2.604698,-2.48379 4.42128,-5.2848 5.5,-8.40625 z m -7.9375,-6.75 c 4.7e-4,-0.05344 -10e-7,-0.102588 0,-0.15625 -3.8e-5,-3.937826 -1.27148,-7.19354 -3.84375,-9.75 C 87.240151,81.224848 83.96958,79.93753 80,79.9375 c -0.03848,10e-7 -0.08608,-3.59e-4 -0.125,0 l 0,2.03125 13.78125,11.71875 z m -13.78125,-13.75 0,-6.8125 c -1.161679,0.222082 -2.346944,0.343765 -3.59375,0.34375 -0.34935,4e-5 -0.834637,-0.0302 -1.40625,-0.09375 l -0.9375,7.53125 c 2.356166,-0.620023 4.337935,-0.953996 5.9375,-0.96875 z m 0,-6.8125 c 2.240995,-0.428419 4.3258,-1.245067 6.25,-2.5 2.921602,-1.905373 4.37496,-4.84284 4.375,-8.8125 C 90.49996,58.668619 89.44018,56.06426 87.3125,54 85.355302,52.101325 82.880058,51.089752 79.875,50.9375 l 0,22.1875 z m 0,-22.1875 0,-7.0625 c -0.32375,-0.01214 -0.640524,-0.03124 -0.96875,-0.03125 -5.52573,7e-5 -10.159458,1.590251 -13.875,4.75 -3.71557,3.15987 -6.108279,7.59581 -7.15625,13.34375 l 8.59375,1.53125 c 0.63512,-4.19186 2.058237,-7.341489 4.28125,-9.4375 2.22296,-2.09589 5.009248,-3.124929 8.34375,-3.125 0.269827,6e-6 0.519381,0.01798 0.78125,0.03125 z"
       transform="translate(311.6248,429.7013)"
       id="text2351" />
  </g>
</svg>
