<?xml version="1.0" encoding="UTF-8" standalone="no"?>
<!-- Created with Inkscape (http://www.inkscape.org/) -->

<svg
   xmlns:dc="http://purl.org/dc/elements/1.1/"
   xmlns:cc="http://creativecommons.org/ns#"
   xmlns:rdf="http://www.w3.org/1999/02/22-rdf-syntax-ns#"
   xmlns:svg="http://www.w3.org/2000/svg"
   xmlns="http://www.w3.org/2000/svg"
   xmlns:xlink="http://www.w3.org/1999/xlink"
   xmlns:sodipodi="http://sodipodi.sourceforge.net/DTD/sodipodi-0.dtd"
   xmlns:inkscape="http://www.inkscape.org/namespaces/inkscape"
   width="2124.1716"
   height="2775.1404"
   id="svg2"
   version="1.1"
   inkscape:version="0.48.5 r10040"
   sodipodi:docname="OOBD_Kadaver.svg">
  <defs
     id="defs4">
    <linearGradient
       y2="-149.65485"
       x2="133.446"
       y1="175.61429"
       x1="456.69482"
       gradientUnits="userSpaceOnUse"
       id="linearGradient3834"
       xlink:href="#linearGradient3214"
       inkscape:collect="always" />
    <linearGradient
       y2="135.5088"
       x2="266.0596"
       y1="212.28041"
       x1="318.7919"
       gradientTransform="matrix(0.81623127,0,0,0.81623127,63.35401,68.788476)"
       gradientUnits="userSpaceOnUse"
       id="linearGradient3831"
       xlink:href="#linearGradient3222"
       inkscape:collect="always" />
    <linearGradient
       y2="135.5088"
       x2="266.0596"
       y1="194.77837"
       x1="304.79025"
       gradientTransform="matrix(0.81623127,0,0,0.81623127,503.35401,66.232089)"
       gradientUnits="userSpaceOnUse"
       id="linearGradient3828"
       xlink:href="#linearGradient3222-5"
       inkscape:collect="always" />
    <linearGradient
       y2="-179.08458"
       x2="360.83688"
       y1="0.72256786"
       x1="542.73981"
       gradientTransform="matrix(0.90346505,0,0,0.90346505,48.985264,-14.248728)"
       gradientUnits="userSpaceOnUse"
       id="linearGradient3822"
       xlink:href="#linearGradient3206"
       inkscape:collect="always" />
    <linearGradient
       id="linearGradient3222-5"
       inkscape:collect="always">
      <stop
         id="stop3224-4"
         offset="0"
         style="stop-color:#4d4d4d;stop-opacity:1;" />
      <stop
         id="stop3226-1"
         offset="1"
         style="stop-color:#4d4d4d;stop-opacity:0;" />
    </linearGradient>
    <linearGradient
       gradientTransform="matrix(0.81623127,0,0,0.81623127,63.35401,68.788476)"
       y2="135.5088"
       x2="266.0596"
       y1="212.28041"
       x1="318.7919"
       gradientUnits="userSpaceOnUse"
       id="linearGradient2916-1"
       xlink:href="#linearGradient3222-5"
       inkscape:collect="always" />
    <inkscape:perspective
       sodipodi:type="inkscape:persp3d"
       inkscape:vp_x="0 : 0.5 : 1"
       inkscape:vp_y="0 : 1000 : 0"
       inkscape:vp_z="1 : 0.5 : 1"
       inkscape:persp3d-origin="0.5 : 0.33333333 : 1"
       id="perspective2994" />
    <inkscape:perspective
       id="perspective10"
       inkscape:persp3d-origin="372.04724 : 350.78739 : 1"
       inkscape:vp_z="744.09448 : 526.18109 : 1"
       inkscape:vp_y="0 : 1000 : 0"
       inkscape:vp_x="0 : 526.18109 : 1"
       sodipodi:type="inkscape:persp3d" />
    <linearGradient
       id="linearGradient3206">
      <stop
         id="stop3208"
         offset="0"
         style="stop-color:#ff0000;stop-opacity:1;" />
      <stop
         id="stop3210"
         offset="1"
         style="stop-color:#fffffd;stop-opacity:1;" />
    </linearGradient>
    <linearGradient
       id="linearGradient3214">
      <stop
         id="stop3216"
         offset="0"
         style="stop-color:#3034a1;stop-opacity:1;" />
      <stop
         id="stop3218"
         offset="1"
         style="stop-color:#9f9f9f;stop-opacity:1;" />
    </linearGradient>
    <linearGradient
       id="linearGradient3222"
       inkscape:collect="always">
      <stop
         id="stop3224"
         offset="0"
         style="stop-color:#4d4d4d;stop-opacity:1;" />
      <stop
         id="stop3226"
         offset="1"
         style="stop-color:#4d4d4d;stop-opacity:0;" />
    </linearGradient>
    <linearGradient
       id="svg_3"
       x1="45.952"
       y1="85.396164"
       x2="572.66986"
       y2="612.11401"
       gradientTransform="scale(1.1459848,0.8726119)"
       gradientUnits="userSpaceOnUse">
      <stop
         id="stop3269"
         offset="0"
         stop-color="#024949" />
      <stop
         id="stop3271"
         offset="1"
         stop-color="#77e598" />
    </linearGradient>
    <linearGradient
       inkscape:collect="always"
       xlink:href="#svg_3"
       id="linearGradient3318"
       gradientUnits="userSpaceOnUse"
       gradientTransform="matrix(3.0890269,4.847438,-3.6910892,2.3521443,632.85041,-1239.2632)"
       x1="45.952"
       y1="85.396164"
       x2="572.66986"
       y2="612.11401" />
    <linearGradient
       inkscape:collect="always"
       xlink:href="#svg_3"
       id="linearGradient3379"
       gradientUnits="userSpaceOnUse"
       gradientTransform="matrix(3.0890269,4.847438,-3.6910892,2.3521443,632.85041,-1239.2632)"
       x1="45.952"
       y1="85.396164"
       x2="572.66986"
       y2="612.11401" />
    <linearGradient
       inkscape:collect="always"
       xlink:href="#svg_3"
       id="linearGradient3382"
       gradientUnits="userSpaceOnUse"
       gradientTransform="matrix(4.8304238,3.1155655,-2.3723522,3.6781336,-339.81953,-1112.7768)"
       x1="45.952"
       y1="85.396164"
       x2="572.66986"
       y2="612.11401" />
  </defs>
  <sodipodi:namedview
     id="base"
     pagecolor="#ffffff"
     bordercolor="#666666"
     borderopacity="1.0"
     inkscape:pageopacity="0.0"
     inkscape:pageshadow="2"
     inkscape:zoom="0.061871843"
     inkscape:cx="688.05438"
     inkscape:cy="2362.7726"
     inkscape:document-units="px"
     inkscape:current-layer="layer1"
     showgrid="false"
     inkscape:window-width="1366"
     inkscape:window-height="705"
     inkscape:window-x="-8"
     inkscape:window-y="-8"
     inkscape:window-maximized="1"
     fit-margin-top="0"
     fit-margin-left="0"
     fit-margin-right="0"
     fit-margin-bottom="0" />
  <metadata
     id="metadata7">
    <rdf:RDF>
      <cc:Work
         rdf:about="">
        <dc:format>image/svg+xml</dc:format>
        <dc:type
           rdf:resource="http://purl.org/dc/dcmitype/StillImage" />
        <dc:title></dc:title>
      </cc:Work>
    </rdf:RDF>
  </metadata>
  <g
     inkscape:label="Ebene 1"
     inkscape:groupmode="layer"
     id="layer1"
     transform="translate(579.48084,276.15919)">
    <path
       style="fill:url(#linearGradient3382)"
       d="m -61.137875,-233.17122 c -1.989317,0.92367 -3.959029,1.85012 -5.937376,2.79604 -161.922609,95.56477 -243.982099,283.415173 -312.001289,452.81623 -10.06407,32.25901 -54.38847,114.97129 -26.19391,135.00729 11.71653,8.67394 28.8035,7.83403 40.17912,-1.02057 96.03442,-51.73991 239.6254,-159.18542 339.938988,-202.88204 C 53.081686,117.24919 129.92067,77.780344 209.92635,45.427338 c 75.9468,-29.374006 199.78157,-64.548244 272.90781,-101.078522 3.5226,-4.512998 -1.81667,-9.414295 -2.64176,-13.986519 -15.49236,-35.082787 -69.86814,-62.065727 -101.37372,-82.566127 -34.41445,-22.39318 -56.45651,-60.32697 -92.59344,-79.99656 -76.34877,-43.28401 -169.40903,-54.80673 -254.399308,-33.66552 -32.03218964,7.58294 -63.121131,18.84584 -92.963807,32.69469 z m 51.1436612,86.03698 c 1.872134,-0.87271 3.7497681,-1.71582 5.6357179,-2.55437 64.9236139,-28.3409 143.7008759,-26.7494 205.2495059,9.54155 18.59253,11.677 35.18137,26.82505 47.36336,45.165333 C 169.12619,-66.250808 93.073763,-29.906054 17.556191,7.100996 -48.36839,38.969421 -177.36901,108.39615 -243.34859,140.15017 c 10.23954,-73.129659 102.83916,-183.696269 156.39413,-235.770744 22.413482,-21.474186 48.878187,-38.423136 76.9602254,-51.513716 z m 504.6199938,34.27673 c 23.70025,16.067725 45.65439,34.492664 54.94871,55.539889 0.91326,5.060762 6.77162,10.467159 2.87261,15.462374 C 471.50735,-1.4217269 334.48082,37.507527 250.41912,70.020128 220.72716,82.027052 191.41405,94.939684 162.31894,108.28708 141.61747,142.59211 125.86954,177.3433 117.79913,208.86336 91.044368,205.07937 55.486394,190.65278 12.833027,179.11832 5.3026865,182.66704 -2.2409234,186.17952 -9.7913135,189.68251 -120.82336,238.04811 -279.75317,356.99959 -386.04883,414.26788 c -12.59111,9.80071 -31.49312,10.73141 -44.46158,1.13066 -7.81051,-5.55042 -10.57757,-15.43852 -10.18609,-27.71566 -21.99196,23.8228 -43.8873,47.74211 -64.80416,72.51272 -29.02208,35.30616 -56.28519,73.84867 -68.68517,118.41664 -7.66875,28.21832 -8.4907,60.53121 7.59854,86.09328 13.68735,22.05872 35.74277,39.46871 61.01185,45.9802 10.75787,3.0094 20.67482,-3.64601 30.22961,-7.55804 34.08593,-17.34348 67.95006,-35.18201 101.32666,-53.86817 27.60983,-15.41196 63.94708,-21.16488 91.56741,-36.55824 -95.88078,-255.03249 217.309294,-378.17353 341.484907,-190.00845 0.354655,-0.1486 0.890002,-0.38835 1.26251,-0.54559 55.413183,38.18713 110.500943,199.97326 86.294553,237.50325 -10.06451,15.60424 -86.335875,44.04578 -169.48217,63.23447 -162.3866,37.47639 -188.50975,55.28622 -152.82232,104.07052 40.6459,55.5697 139.737251,72.42006 281.33741,47.84018 130.54212,-22.65765 219.96421,-5.06137 192.28807,37.84816 -6.82116,10.57565 -87.15141,35.35013 -178.49677,55.06388 -179.41117,38.71951 -197.30518,50.52811 -176.541242,116.44431 18.550728,58.8723 85.291869,72.9186 264.663462,55.6366 83.4724,-8.0437 161.11417,-8.6056 172.54974,-1.2299 45.48494,29.3373 -17.70994,62.7933 -158.44737,83.8887 -105.48859,15.814 -150.662209,34.4521 -157.002593,64.7238 -16.716545,79.8214 96.996743,120.4928 279.985313,100.1481 93.58326,-10.4038 175.30068,-15.6082 181.60221,-11.5438 32.25809,20.8061 -33.60714,56.3806 -176.22984,95.1863 -144.60422,39.3425 -157.31872,47.5563 -140.65671,90.9512 22.1502,57.6963 112.6658,72.6864 242.24586,40.0734 78.12063,-19.6606 148.91709,-3.6994 125.70774,28.3334 -5.82315,8.0382 -57.76855,28.7226 -115.44028,45.9766 -57.66488,17.2524 -115.32896,47.601 -128.13402,67.4541 -36.37592,56.398 54.16284,97.7128 177.56229,81.0303 113.37207,-15.3309 191.94776,11.0627 163.63005,54.9667 -9.11034,14.1248 -67.37097,41.869 -129.42428,61.6505 l -112.81609,35.9675 -64.5449,220.7138 c -35.4993,121.3884 -68.38217,234.2991 -73.09438,250.9142 -4.71068,16.6223 0.15812,35.8483 10.82238,42.7266 37.3837,24.1121 117.25966,-9.3459 329.10438,-137.8275 184.58559,-111.9535 259.30911,-139.455 548.48025,-201.9711 184.1195,-39.8011 344.1259,-86.9028 355.5823,-104.6651 26.132,-40.5155 -41.1137,-114.333 -138.3478,-151.8303 -40.7652,-15.7228 -147.7443,-69.0364 -237.7231,-118.4947 -149.4735,-82.1617 -166.01179,-86.2139 -191.80903,-46.8375 -34.77052,53.0763 -102.29861,86.7496 -109.2615,54.4868 -2.82652,-13.08 29.0693,-51.4169 70.88598,-85.1761 80.37765,-64.8854 120.62605,-155.4254 80.36835,-180.8003 -13.221,-8.3365 -65.00862,3.3186 -115.08296,25.8667 -164.41718,74.0493 -164.12037,-4.522 0.3868,-100.0779 75.60754,-43.9147 93.0468,-64.5262 101.09218,-119.5125 12.78488,-87.3649 -18.15718,-103.464 -122.8254,-63.9089 -113.46073,42.8785 -113.30694,20.3684 0.43852,-64.8529 91.60954,-68.641 137.00366,-154.8547 82.10415,-155.909 -15.64545,-0.3026 -40.16167,17.6478 -54.51076,39.895 -52.29927,81.0856 -268.50488,189.7437 -442.02353,222.159 -153.65165,28.7082 -233.54641,27.2976 -213.52336,-3.7465 3.24065,-5.0242 98.22195,-34.8773 211.10133,-66.3607 214.66165,-59.8645 448.15347,-171.6787 439.68233,-210.5607 -4.81332,-22.08455 -40.76223,-13.4996 -207.86703,49.7441 -128.02382,48.4488 -104.92836,-10.6746 41.26165,-105.64804 133.45312,-86.69149 202.09785,-186.04371 172.1024,-249.03865 -22.41075,-47.06708 -136.10684,-37.14485 -223.6754,19.52125 -47.34863,30.63886 -105.17539,58.01472 -128.5301,60.82713 -77.27451,9.30775 -53.51006,-38.11677 50.87067,-101.49891 C 712.10082,629.94583 845.03855,455.65735 822.75588,408.86385 793.22314,346.83573 706.39612,360.36453 569.93953,448.27021 491.56274,498.75466 420.08186,535.25623 411.08033,529.39066 375.02361,505.89593 308.08242,327.69379 325.07417,301.34951 l -56.59068,25.40969 c 24.30887,-11.34958 44.39422,-20.75068 55.36279,-25.91174 C 238.69574,82.810426 532.95624,-62.470156 669.54791,138.51112 725.23823,115.14874 770.4456,90.33469 814.16504,75.796836 811.92237,59.074287 799.24103,46.698281 791.86381,32.18734 727.31061,-63.74567 609.67389,-120.11436 494.62578,-112.85751 z M 200.17127,406.83263 c 7.30842,-3.34373 15.86442,-3.12032 22.80351,1.35531 11.10679,7.16375 17.63357,17.03075 14.47449,21.92864 -3.15914,4.89797 -18.45397,8.65397 -33.98949,8.3566 -15.52852,-0.29889 -22.03124,-10.18156 -14.44609,-21.94169 2.84442,-4.41003 6.77254,-7.6926 11.15758,-9.69886 z m 84.67721,140.09968 c 7.34068,-3.34534 14.65316,-3.61286 20.20655,-0.031 11.10253,7.161 14.67201,21.56863 7.9324,32.01783 -6.74235,10.45345 -24.95888,18.75578 -40.49015,18.46115 -15.53285,-0.30151 -19.10072,-14.70227 -7.93239,-32.01783 5.58417,-8.6578 12.9429,-15.08485 20.28359,-18.43016 z m 399.27785,-80.51175 c 45.67964,-21.61131 69.41293,5.77796 36.16639,57.32391 -37.17517,57.63699 -310.33345,213.45899 -423.75139,241.72425 -58.68561,14.62443 -145.62025,28.58588 -193.15294,31.01779 -79.672976,4.0781 -74.15118,-0.1954 70.62822,-54.96716 152.35579,-57.64402 367.4088,-172.88479 486.06363,-260.44263 8.49557,-6.26948 16.57124,-11.11977 24.04609,-14.65616 z m 70.7512,313.86816 c 46.53538,-21.57394 83.55177,-32.35039 93.97462,-25.62778 20.66239,13.32699 16.51727,28.99095 -14.52894,54.99039 -88.46882,74.09865 -311.02245,193.20847 -417.76874,223.60427 -114.59429,32.6337 -219.45832,35.6998 -200.20728,5.8527 6.12241,-9.4923 79.82022,-42.83589 163.77257,-74.09228 83.95393,-31.24959 217.26146,-95.54303 296.24362,-142.88532 27.15115,-16.27538 54.13847,-30.54134 78.51415,-41.84198 z M 579.41167,1474.4229 c 131.61319,-60.6673 257.13271,-102.4787 260.52182,-86.7919 5.0653,23.4708 -192.27949,132.7037 -247.55672,137.0282 -81.78445,6.399 -87.53764,-15.8664 -12.9651,-50.2363 z m -63.05667,281.002 129.28712,-48.6229 c 71.1001,-26.7373 153.11114,-48.7157 182.24833,-48.8431 51.04853,-0.2298 50.36723,1.0158 -18.65125,34.1871 -39.39408,18.926 -121.40109,40.9074 -182.24829,48.8432 L 516.355,1755.4249 z m 4.50603,283.2222 c 6.84358,-3.6269 14.49445,0.675 25.75991,7.9412 45.72098,29.4895 58.9788,214.3304 18.10465,252.5594 -20.64496,19.3028 -62.63873,44.6719 -93.31229,56.3425 -45.13592,17.1682 -53.63045,14.4088 -44.57515,-14.4642 6.14963,-19.6213 26.20574,-92.0565 44.57265,-160.9534 26.32661,-98.7521 36.38517,-134.5016 49.45023,-141.4255 z m 515.88917,-210.1103 130.8063,63.1661 c 71.9362,34.753 150.9548,69.4089 175.5834,77.0217 43.8097,13.5381 43.2186,14.4282 -26.7203,41.4012 -79.2882,30.5762 -120.3044,10.7843 -215.3691,-103.9682 l -64.3003,-77.6208 z m -101.03797,67.9727 52.69739,51.3125 c 97.80408,95.1994 112.85718,118.1222 89.76888,136.6604 -40.9715,32.9017 -86.37255,-5.8721 -114.73601,-97.9559 l -27.73026,-90.017 z m -122.83535,82.2837 c 0.58585,-0.2856 1.22706,-0.5185 1.8957,-0.6644 28.13767,-6.1376 103.66621,100.3248 88.19149,124.3171 -6.91904,10.7273 -23.97568,19.2915 -37.89389,19.0224 -30.19072,-0.5816 -76.6034,-130.7744 -52.1933,-142.6751 z m -115.59851,93.4717 c 7.05541,-3.3377 16.90814,8.521 31.3275,34.5114 14.54256,26.2113 17.88165,60.9787 7.38758,77.2489 -27.18681,42.1509 -58.827,13.8462 -53.7683,-48.1038 3.21089,-39.3284 7.54284,-60.103 15.05322,-63.6565 z"
       id="svg_1"
       inkscape:connector-curvature="0" />
  </g>
</svg>
