<?xml version="1.0" encoding="UTF-8" standalone="no"?>
<!-- Created with Inkscape (http://www.inkscape.org/) -->

<svg
   xmlns:dc="http://purl.org/dc/elements/1.1/"
   xmlns:cc="http://creativecommons.org/ns#"
   xmlns:rdf="http://www.w3.org/1999/02/22-rdf-syntax-ns#"
   xmlns:svg="http://www.w3.org/2000/svg"
   xmlns="http://www.w3.org/2000/svg"
   xmlns:xlink="http://www.w3.org/1999/xlink"
   xmlns:sodipodi="http://sodipodi.sourceforge.net/DTD/sodipodi-0.dtd"
   xmlns:inkscape="http://www.inkscape.org/namespaces/inkscape"
   width="143.6469"
   height="143.6469"
   id="svg2046"
   sodipodi:version="0.32"
   inkscape:version="0.47 r22583"
   version="1.0"
   sodipodi:docname="update.svg"
   inkscape:output_extension="org.inkscape.output.svg.inkscape"
   inkscape:export-filename="/home/steffen/Desktop/workcopies/oobd/trunk/clients/skds/NBprojects/swing/src/skdsswing/resources/update_16.png"
   inkscape:export-xdpi="10.02"
   inkscape:export-ydpi="10.02">
  <defs
     id="defs2048">
    <inkscape:perspective
       sodipodi:type="inkscape:persp3d"
       inkscape:vp_x="0 : 79.803741 : 1"
       inkscape:vp_y="0 : 1000 : 0"
       inkscape:vp_z="159.60748 : 79.803741 : 1"
       inkscape:persp3d-origin="79.803741 : 53.202494 : 1"
       id="perspective23" />
    <linearGradient
       id="linearGradient5190">
      <stop
         style="stop-color:#ffffff;stop-opacity:1;"
         offset="0"
         id="stop5192" />
      <stop
         style="stop-color:#ff9f00;stop-opacity:1;"
         offset="1"
         id="stop5194" />
    </linearGradient>
    <linearGradient
       inkscape:collect="always"
       xlink:href="#linearGradient5190"
       id="linearGradient2109"
       gradientUnits="userSpaceOnUse"
       gradientTransform="matrix(0.312273,0,0,0.320491,127.55,434.3769)"
       x1="264.582"
       y1="296.37491"
       x2="380.6846"
       y2="553.74487" />
    <linearGradient
       id="linearGradient5197">
      <stop
         style="stop-color:#ffffff;stop-opacity:1"
         offset="0"
         id="stop5199" />
      <stop
         style="stop-color:#ff0000;stop-opacity:1"
         offset="1"
         id="stop5201" />
    </linearGradient>
    <linearGradient
       inkscape:collect="always"
       xlink:href="#linearGradient5197"
       id="linearGradient2107"
       gradientUnits="userSpaceOnUse"
       gradientTransform="matrix(-0.301633,0.08082223,-0.08294933,-0.30957,402.8575,730.1118)"
       x1="249.48328"
       y1="262.87494"
       x2="272.02597"
       y2="427.54285" />
    <linearGradient
       inkscape:collect="always"
       xlink:href="#linearGradient5190"
       id="linearGradient2192"
       gradientUnits="userSpaceOnUse"
       gradientTransform="matrix(0.2810457,0,0,0.2884419,285.2371,359.82618)"
       x1="264.582"
       y1="296.37491"
       x2="380.6846"
       y2="553.74487" />
    <linearGradient
       inkscape:collect="always"
       xlink:href="#linearGradient5190"
       id="linearGradient2195"
       gradientUnits="userSpaceOnUse"
       gradientTransform="matrix(-0.2714697,0.07274001,-0.0746544,-0.278613,533.01385,625.98759)"
       x1="249.48328"
       y1="262.87494"
       x2="272.02597"
       y2="427.54285" />
  </defs>
  <sodipodi:namedview
     id="base"
     pagecolor="#ffffff"
     bordercolor="#666666"
     borderopacity="1.0"
     gridtolerance="10000"
     guidetolerance="10"
     objecttolerance="10"
     inkscape:pageopacity="0.0"
     inkscape:pageshadow="2"
     inkscape:zoom="5.0603652"
     inkscape:cx="71.82345"
     inkscape:cy="71.82345"
     inkscape:document-units="px"
     inkscape:current-layer="layer1"
     inkscape:window-width="1280"
     inkscape:window-height="710"
     inkscape:window-x="1276"
     inkscape:window-y="247"
     showgrid="false"
     inkscape:window-maximized="0" />
  <metadata
     id="metadata2051">
    <rdf:RDF>
      <cc:Work
         rdf:about="">
        <dc:format>image/svg+xml</dc:format>
        <dc:type
           rdf:resource="http://purl.org/dc/dcmitype/StillImage" />
        <dc:title>round error warning button</dc:title>
        <dc:creator>
          <cc:Agent>
            <dc:title>Lumen Design Studio</dc:title>
          </cc:Agent>
        </dc:creator>
        <dc:contributor>
          <cc:Agent>
            <dc:title>Lumen Design Studio</dc:title>
          </cc:Agent>
        </dc:contributor>
        <dc:description>error warning icon</dc:description>
        <dc:subject>
          <rdf:Bag>
            <rdf:li>error</rdf:li>
            <rdf:li>icon</rdf:li>
            <rdf:li>button</rdf:li>
            <rdf:li>red</rdf:li>
            <rdf:li>stop</rdf:li>
            <rdf:li>no</rdf:li>
            <rdf:li>warning</rdf:li>
            <rdf:li>negative</rdf:li>
            <rdf:li>delete</rdf:li>
            <rdf:li>cancel</rdf:li>
          </rdf:Bag>
        </dc:subject>
        <cc:license
           rdf:resource="http://web.resource.org/cc/PublicDomain" />
      </cc:Work>
      <cc:License
         rdf:about="http://web.resource.org/cc/PublicDomain">
        <cc:permits
           rdf:resource="http://web.resource.org/cc/Reproduction" />
        <cc:permits
           rdf:resource="http://web.resource.org/cc/Distribution" />
        <cc:permits
           rdf:resource="http://web.resource.org/cc/DerivativeWorks" />
      </cc:License>
    </rdf:RDF>
  </metadata>
  <g
     inkscape:label="Layer 1"
     inkscape:groupmode="layer"
     id="layer1"
     transform="translate(-319.60508,-437.68159)">
    <path
       transform="matrix(0.2761758,0,0,0.2761758,285.29812,354.98328)"
       d="m 634.28571,559.50507 c 0,138.07118 -111.92882,250 -250,250 -138.07119,0 -250,-111.92882 -250,-250 0,-138.07119 111.92881,-250 250,-250 138.07118,0 250,111.92881 250,250 z"
       sodipodi:ry="250"
       sodipodi:rx="250"
       sodipodi:cy="559.50507"
       sodipodi:cx="384.28571"
       id="path2174"
       style="fill:#ff9f00;fill-opacity:1;fill-rule:evenodd;stroke:#e08a00;stroke-width:20.12848282;stroke-linecap:butt;stroke-linejoin:miter;stroke-miterlimit:4;stroke-opacity:1;stroke-dasharray:none;stroke-dashoffset:0;marker-start:none;marker-mid:none;marker-end:none"
       sodipodi:type="arc" />
    <path
       sodipodi:nodetypes="cccc"
       id="path2540"
       d="m 408.21324,570.92519 c 17.14197,-4.59316 30.7559,-15.89238 38.90583,-30.44154 13.23692,-31.33628 -36.15013,42.02992 -76.94216,28.70157 11.85843,4.34898 25.03196,5.22449 38.03633,1.73997 z"
       style="fill:url(#linearGradient2195);fill-opacity:1;fill-rule:evenodd;stroke:none" />
    <path
       style="fill:url(#linearGradient2192);fill-opacity:1;fill-rule:evenodd;stroke:none"
       d="m 391.53382,445.31297 c -35.49333,0 -64.29798,29.56261 -64.29798,65.98994 0,4.92652 0.54671,9.72162 1.54575,14.34093 35.2846,-67.92101 73.30103,-25.16663 122.31635,-39.19194 -9.57189,-24.11799 -32.6379,-41.13893 -59.56412,-41.13893 z"
       id="path2197"
       sodipodi:nodetypes="ccccc" />
    <path
       style="fill:#ffffff;fill-opacity:1;stroke:none"
       d="m 110.36009,49.57651 -8.54759,7.95474 c -5.656591,-5.600328 -13.419751,-9.0625 -22,-9.0625 -17.289494,0 -31.343748,14.054259 -31.34375,31.34375 0,17.289493 14.054259,31.3125 31.34375,31.3125 15.277095,0 27.99411,-10.96126 30.75,-25.4375 l -22.15625,0 C 86.534488,88.439722 83.394774,90.25 79.8125,90.25 74.049248,90.249999 69.375,85.575754 69.375,79.8125 c -10e-7,-5.763252 4.674245,-10.4375 10.4375,-10.4375 2.803471,-10e-7 5.343318,1.106855 7.21875,2.90625 l -7.8125,7.8125 34.10555,0.988071 -2.96421,-31.505311 z"
       transform="translate(311.6248,429.7013)"
       id="path8060"
       sodipodi:nodetypes="ccsssccssscccc" />
    <path
       sodipodi:nodetypes="ccsssccssscccc"
       id="path9047"
       d="m 423.53969,476.56907 -9.31567,8.66956 c -6.1649,-6.10358 -14.62565,-9.87686 -23.97692,-9.87686 -18.84313,0 -34.1603,15.31718 -34.1603,34.1603 0,18.84312 15.31718,34.12624 34.1603,34.12624 16.6499,0 30.50966,-11.94624 33.5132,-27.72331 l -24.14721,0 c -2.03996,2.99954 -5.46181,4.97249 -9.36599,4.97249 -6.28114,0 -11.37541,-5.09428 -11.37541,-11.37542 0,-6.28114 5.09427,-11.37541 11.37541,-11.37541 3.05539,0 5.82347,1.20632 7.86742,3.16741 l -8.51453,8.51453 37.17028,1.07686 -3.23058,-34.33639 z"
       style="opacity:0.73500001;fill:#ffffff;fill-opacity:1;stroke:none" />
  </g>
  <g
     inkscape:groupmode="layer"
     id="layer2"
     inkscape:label="Content"
     transform="translate(-7.9802822,-7.9802893)" />
</svg>
